<svg width="520" height="274" viewBox="0 0 520 274" fill="none" xmlns="http://www.w3.org/2000/svg">
<path d="M58.0213 169.432C31.8091 185.915 18.0768 223.057 39.2971 272.56H456.767C463.855 254.628 468.097 231.065 469.426 217.043C472.331 186.452 461.93 154.669 443.597 137.887C397.204 95.4292 358.631 154.405 334.242 129.47C320.161 115.082 321.498 74.686 310.483 55.9362C286.171 14.5521 240.391 -5.85889 195.25 1.46724C165.213 6.33998 138.123 22.236 121.597 49.1297C98.9625 85.9648 115.438 112.347 105.445 137.81C94.3027 166.195 75.5274 158.425 58.0128 169.432H58.0213Z" fill="#F5F9FE"/>
<path d="M95.1538 104.502C95.0941 104.74 98.9702 102.338 98.9702 102.338L100.606 99.7996C100.606 99.7996 102.207 98.7688 103.349 98.2066C104.499 97.6529 106.603 94.2198 106.603 94.2198L105.768 93.172C105.768 93.172 104.567 94.6372 104.167 94.8758C103.775 95.1143 102.965 94.9184 102.965 94.9184C102.965 94.9184 103.247 93.8535 103.886 92.3287C104.524 90.8038 106.484 88.3504 106.484 88.3504L105.751 87.5837C105.751 87.5837 104.576 88.6997 104.15 89.2534C103.724 89.8156 102.914 90.9912 102.914 90.9912C102.914 90.9912 103.758 88.9211 104.277 88.1459C104.797 87.3707 105.368 86.3314 105.368 86.3314L104.516 85.7437C104.516 85.7437 103.519 86.9704 103.008 87.8904C102.497 88.8104 101.551 90.3267 101.551 90.3267C101.551 90.3267 102.275 87.9926 102.625 87.3196C102.983 86.6466 103.11 86.2974 103.11 86.2974L102.105 85.9566C102.105 85.9566 101.355 86.8596 100.912 88.0863C100.469 89.3045 100.146 89.8412 100.146 89.8412C100.146 89.8412 100.444 87.8733 100.776 87.2941C101.108 86.7148 101.117 86.4763 101.117 86.4763L100.299 86.3229C100.299 86.3229 98.7317 89.2108 97.9053 90.9997C97.079 92.7887 96.4401 95.208 95.9716 96.5199C95.5031 97.8318 94.9067 102.287 94.9067 102.287L95.1197 104.51L95.1538 104.502Z" fill="#F5C5B3"/>
<path d="M119.305 121.642L99.456 118.226C99.456 118.226 98.9193 113.524 99.2431 108.055C99.5923 102.117 100.325 100.465 100.325 100.465L95.0007 99.7236C95.0007 99.7236 93.9529 104.4 93.1947 107.765C91.5251 115.219 89.9917 122.205 91.2695 123.755C93.1266 126.013 109.636 130.613 115.284 134.846C118.683 137.394 118.487 129.233 119.305 121.642Z" fill="#42B2FC"/>
<path d="M147.442 178.07L146.437 184.936L148.507 189.639L150.023 187.585L150.373 183.752L152.613 184.093L153.712 182.713L153.618 179.833L153.252 172.013L147.442 178.07Z" fill="#FEC4AD"/>
<path d="M146.045 125.748C144.512 125.186 139.528 125.552 139.528 125.552C139.528 125.552 139.06 130.876 141.087 134.991C143.115 139.105 148.141 154.098 148.771 155.504C149.41 156.909 147.442 178.061 147.442 178.061L154.734 176.571C154.734 176.571 158.244 160.257 158.218 156.109C158.193 151.96 154.308 136.439 151.557 131.489C148.797 126.54 149.768 127.111 146.054 125.739L146.045 125.748Z" fill="#42B2FC"/>
<path d="M134.033 110.49C134.033 110.49 132.432 117.527 133.684 119.162C134.417 120.125 137.535 123.541 137.535 123.541C137.535 123.541 127.21 128.993 124.169 128.993C121.128 128.993 122.201 122.902 122.201 122.902C122.201 122.902 125.515 120.287 126 118.966C126.494 117.646 126.767 113.813 126.767 113.813L134.025 110.49H134.033Z" fill="#FEC4AD"/>
<path d="M135.243 110.755C135.243 110.755 135.124 108.191 137.271 108.259C138.642 108.301 138.745 109.554 137.68 111.172C137.228 111.854 137.186 113.395 136.623 113.89C135.942 114.494 135.38 113.566 135.175 113.14C134.834 112.441 135.243 110.746 135.243 110.746V110.755Z" fill="#F5C5B3"/>
<path d="M123.683 110.755C123.683 110.755 123.803 108.191 121.656 108.259C120.284 108.301 120.182 109.554 121.247 111.172C121.699 111.854 121.741 113.395 122.303 113.89C122.985 114.494 123.547 113.566 123.752 113.14C124.092 112.441 123.683 110.746 123.683 110.746V110.755Z" fill="#F5C5B3"/>
<path d="M137.425 104.484C137.373 105.319 137.203 105.856 136.99 107.091C136.939 107.389 136.879 107.73 136.828 108.122C136.385 111.197 135.823 115.38 135.576 116.002C135.176 117.032 132.978 118.711 131.938 119.324C130.899 119.937 128.275 119.81 127.228 119.196C126.188 118.583 123.829 117.032 123.428 116.002C123.181 115.363 122.602 111.061 122.15 107.943C122.099 107.585 122.048 107.278 122.006 107.006C121.793 105.788 121.631 105.311 121.58 104.484C121.418 101.886 124.34 98.1123 129.502 98.1123C135.602 98.1123 137.586 101.886 137.425 104.484Z" fill="#F5C5B3"/>
<g style="mix-blend-mode:multiply">
<path d="M124.161 101.214C124.161 101.214 128.548 99.2629 133.608 101.563L135.431 100.404C135.431 100.404 132.782 99.0158 128.965 99.0414C125.149 99.0669 124.161 101.214 124.161 101.214Z" fill="#E8D4E5"/>
</g>
<path d="M136.99 107.092C136.939 107.39 136.879 107.73 136.828 108.122C136.385 111.198 135.823 115.38 135.576 116.002C135.175 117.033 132.978 118.711 131.938 119.324C130.899 119.938 128.275 119.81 127.227 119.197C126.188 118.583 123.828 117.033 123.428 116.002C123.181 115.363 122.602 111.061 122.15 107.943C122.099 107.586 122.048 107.279 122.005 107.006L122.423 106.376C122.423 106.376 123.181 110.831 124.348 112.22C125.507 113.6 125.737 113.668 125.737 113.668C125.737 113.668 127.006 113.353 128.113 113.08C128.181 113.063 128.241 113.046 128.301 113.029C129.221 112.808 130.166 112.808 131.078 113.055C131.129 113.063 131.18 113.08 131.231 113.097L131.402 113.148L133.208 113.668C133.208 113.668 133.625 113.6 134.792 112.22C135.959 110.831 136.513 106.376 136.513 106.376L136.99 107.092Z" fill="#7B2B1A"/>
<path d="M137.799 102.824C137.782 102.909 137.365 105.95 137.195 106.427C136.93 107.16 136.726 107.697 136.726 107.697L136.411 107.015C135.832 105.754 135.516 104.391 135.491 103.003L135.431 100.396L136.3 99.6294C138.004 99.885 138.191 100.873 137.799 102.815V102.824Z" fill="#7B2B1A"/>
<path d="M124.263 100.532L123.845 103.224C123.649 104.467 123.232 105.66 122.602 106.75L122.567 106.81L122.099 107.628C122.099 107.628 121.963 107.151 121.767 106.478C121.622 105.984 121.273 103.445 121.187 103.087C121.162 102.977 121.136 102.866 121.119 102.764C120.753 100.855 121.111 100.063 122.797 99.8076L124.271 100.54L124.263 100.532Z" fill="#7B2B1A"/>
<path d="M136.3 99.6291L135.431 100.396L133.778 100.992C133.582 100.788 130.575 99.7484 127.968 99.9443C124.663 100.2 124.212 101.154 124.16 101.214L123.82 101.137L122.193 100.779L121.86 100.703C121.86 100.703 122.235 99.2714 122.508 98.8625C123.811 96.9031 127.346 95.6338 130.567 95.9576C130.677 95.9661 130.779 95.9831 130.89 95.9916C133.897 96.3835 135.269 97.8061 135.269 97.8061L136.3 99.6206V99.6291Z" fill="#7B2B1A"/>
<path d="M144.35 266.503V272.944H131.972C131.972 272.944 132.441 270.609 138.31 269.536L139.171 266.503H144.35Z" fill="#133A50"/>
<path d="M125.523 266.503V272.944H113.146C113.146 272.944 113.614 270.609 119.483 269.536L120.344 266.503H125.523Z" fill="#133A50"/>
<path d="M142.272 170.625C142.272 170.625 144.001 191.368 144.06 208.286C144.12 225.204 145.125 267.977 145.125 267.977H138.293C138.293 267.977 131.248 226.899 128.684 216.021C126.12 205.143 119.467 170.829 119.467 170.829L142.263 170.625H142.272Z" fill="#133A50"/>
<path d="M127.415 192.901C127.415 192.901 126.137 218.679 125.881 223.756C125.626 228.833 125.881 267.951 125.881 267.951C125.881 267.951 119.475 268.122 119.475 267.951C119.475 267.781 113.435 226.286 112.66 213.781C111.876 201.275 112.336 186.444 111.297 184.715C110.258 182.985 114.1 170.701 114.1 170.701L123.164 173.12L127.415 192.901Z" fill="#133A50"/>
<path d="M124.62 120.559C124.62 120.559 121.783 126.999 126.051 127.707C132.841 128.84 134.911 120.15 134.911 120.15L142.399 124.009C142.399 124.009 142.263 170.624 145.201 184.85C146.914 193.114 118.47 189.178 114.304 181.843C110.692 175.497 121.127 122.749 121.127 122.749L124.62 120.559Z" fill="white"/>
<path d="M136.674 120.96C136.47 121.242 126.426 150.64 129.842 178.309C130.643 184.757 142.399 179.425 145.21 179.425C145.21 179.425 146.548 158.775 146.871 151.1C147.195 143.424 143.54 140.894 143.864 137.138C144.188 133.381 148.277 126.685 148.277 126.685L136.674 120.969V120.96Z" fill="#42B2FC"/>
<path d="M119.884 181.239C121.034 162.004 121.503 121.744 121.503 121.744L114.714 121.242C114.714 121.242 111.315 155.01 111.272 158.852C111.255 160.377 111.732 178.922 110.701 182.389C112.993 182.73 119.748 183.556 119.884 181.239Z" fill="#42B2FC"/>
<path d="M193.802 110.49C188.478 112.322 183 114.23 178.766 117.944C174.532 121.658 171.806 127.681 173.595 133.022C175.376 138.364 182.804 141.473 187.098 137.827C188.639 136.515 189.594 134.266 188.767 132.426C187.132 128.771 181.424 130.484 178.749 133.465C175.58 136.992 173.561 141.822 174.345 146.499C175.129 151.176 179.218 155.384 183.963 155.384C188.708 155.384 195.471 148.22 191.408 145.766C186.246 142.649 179.618 150.068 177.079 155.537C174.541 161.006 176.125 168.401 181.313 171.476C186.501 174.543 198.666 170.667 195.48 165.547C192.115 160.138 182.157 167.932 180.836 174.168C179.516 180.395 184.389 187.227 190.718 187.994C197.039 188.761 207.994 181.562 203.615 176.937C197.294 170.249 186.748 187.278 189.789 195.959C192.831 204.648 205.413 208.098 212.466 202.195C213.787 201.087 214.979 199.503 214.732 197.799C214.323 194.954 210.43 194.153 207.704 195.064C200.6 197.441 197.388 207.383 201.767 213.465C206.145 219.547 216.598 219.658 221.104 213.669C221.982 212.502 222.663 211.037 222.348 209.615C221.905 207.621 219.545 206.505 217.544 206.88C215.542 207.255 213.923 208.763 212.782 210.458C208.727 216.464 210.098 225.485 215.746 230.017C221.403 234.549 230.501 233.927 235.484 228.662C236.779 227.291 237.852 225.459 237.512 223.602C237.111 221.456 234.82 220.016 232.639 220.067C230.458 220.118 228.456 221.37 226.94 222.946C220.576 229.557 223.294 242.344 231.795 245.785C240.297 249.235 257.156 239.737 251.184 232.777C247.197 228.126 239.335 238.186 240.34 244.226C241.345 250.266 248.296 254.389 254.217 252.83C260.137 251.271 267.941 242.778 263.366 238.706C260.129 235.827 254.89 241.918 253.885 246.134C252.888 250.351 255.128 255.113 259.021 257.03C263.213 259.092 268.341 257.848 272.362 255.497C276.391 253.137 279.731 249.772 283.607 247.174C291.393 241.96 301.343 240.103 310.483 242.139" stroke="white" strokeWidth="2" strokeMiterlimit="10"/>
<path d="M499.626 204.222C499.626 204.222 434.321 203.489 380.048 265.745" stroke="white" strokeMiterlimit="10"/>
<path d="M50.269 165.751C50.269 165.751 101.058 191.274 141.582 273.642" stroke="#194459" strokeMiterlimit="10"/>
<path d="M19.5933 204.222C19.5933 204.222 84.8981 203.489 139.171 265.745" stroke="white" strokeMiterlimit="10"/>
<path d="M297.629 273.411H281.562C279.79 273.411 278.317 272.048 278.163 270.285L277.107 257.6H302.067L301.011 270.285C300.866 272.048 299.383 273.411 297.612 273.411H297.629Z" fill="#21295B"/>
<path d="M392.486 273.411H376.419C374.647 273.411 373.165 272.048 373.02 270.285L371.964 257.6H396.924L395.868 270.285C395.723 272.048 394.24 273.411 392.469 273.411H392.486Z" fill="#21295B"/>
<path d="M395.27 240.963H278.776L287.014 180.906C287.653 176.221 291.657 172.728 296.385 172.728H377.654C382.382 172.728 386.385 176.221 387.024 180.906L395.262 240.963H395.27Z" fill="#DA3D16"/>
<path d="M379.545 229.31H294.494L300.533 168.98C300.985 164.499 304.759 161.083 309.265 161.083H364.773C369.28 161.083 373.054 164.499 373.505 168.98L379.545 229.31Z" fill="#E50064"/>
<g style="mix-blend-mode:multiply">
<path d="M280.642 227.325L278.776 240.964H395.27L393.396 227.325H280.642Z" fill="#CFCFCF"/>
</g>
<path d="M407.879 264.263H266.169L268.793 233.476H405.255L407.879 264.263Z" fill="#DA3D16"/>
<g style="mix-blend-mode:multiply">
<path d="M361.068 188.932C366.426 202.212 360.003 217.316 346.722 222.674C333.442 228.033 318.338 221.61 312.98 208.329C307.621 195.048 314.044 179.944 327.325 174.586C340.606 169.228 355.71 175.651 361.068 188.932Z" fill="#CFCFCF"/>
</g>
<path d="M337.548 221.037C349.927 220.747 359.728 210.477 359.439 198.097C359.149 185.717 348.879 175.917 336.499 176.206C324.12 176.496 314.319 186.766 314.608 199.146C314.898 211.525 325.168 221.326 337.548 221.037Z" fill="white"/>
<path d="M343.289 217.06C342.514 217.06 341.765 216.754 341.228 216.208C341.092 216.072 340.972 215.927 340.87 215.757C340.759 215.595 340.674 215.433 340.597 215.254C340.529 215.084 340.47 214.897 340.436 214.718C340.402 214.53 340.376 214.334 340.376 214.147C340.376 213.38 340.691 212.631 341.236 212.094C341.909 211.421 342.915 211.106 343.86 211.293C344.048 211.336 344.226 211.387 344.397 211.464C344.576 211.54 344.746 211.634 344.908 211.728C345.061 211.838 345.215 211.958 345.351 212.094C345.888 212.631 346.211 213.38 346.211 214.147C346.211 214.334 346.186 214.53 346.152 214.718C346.109 214.897 346.049 215.084 345.99 215.254C345.913 215.433 345.819 215.595 345.726 215.757C345.615 215.927 345.496 216.072 345.359 216.208C345.223 216.345 345.078 216.456 344.916 216.566C344.755 216.677 344.593 216.762 344.405 216.83C344.235 216.907 344.048 216.967 343.869 217.001C343.681 217.043 343.485 217.06 343.306 217.06H343.289Z" fill="#B3B3B3"/>
<path d="M334.268 218.083C332.684 217.862 331.576 216.388 331.798 214.787C332.019 213.202 333.493 212.095 335.094 212.316C336.679 212.546 337.786 214.02 337.565 215.613C337.36 217.07 336.108 218.117 334.677 218.117C334.541 218.117 334.413 218.117 334.268 218.083ZM324.914 214.105C323.654 213.117 323.424 211.285 324.412 210.016C325.4 208.755 327.223 208.525 328.492 209.513C329.753 210.502 329.983 212.333 328.995 213.594C328.424 214.335 327.564 214.718 326.703 214.718C326.081 214.718 325.451 214.523 324.914 214.105ZM318.806 205.97C318.202 204.479 318.926 202.784 320.408 202.187C321.899 201.583 323.594 202.307 324.199 203.789C324.795 205.28 324.071 206.975 322.589 207.58C322.231 207.725 321.865 207.784 321.498 207.784C320.348 207.784 319.249 207.103 318.806 205.961V205.97ZM320.042 199.172C318.457 198.95 317.341 197.476 317.563 195.875C317.793 194.29 319.266 193.174 320.859 193.404C322.452 193.626 323.551 195.1 323.338 196.693C323.134 198.149 321.882 199.197 320.451 199.197C320.314 199.197 320.178 199.197 320.042 199.172ZM322.044 190.61C320.783 189.622 320.544 187.791 321.532 186.53C322.521 185.261 324.352 185.031 325.613 186.019C326.882 187.007 327.112 188.838 326.116 190.099C325.545 190.84 324.684 191.224 323.824 191.224C323.202 191.224 322.572 191.028 322.035 190.61H322.044ZM345.538 187.714C344.269 186.726 344.039 184.894 345.027 183.633C346.007 182.364 347.838 182.134 349.108 183.114C350.368 184.102 350.607 185.934 349.619 187.203C349.048 187.935 348.188 188.327 347.327 188.327C346.697 188.327 346.075 188.123 345.538 187.714ZM328.049 184.187C327.444 182.696 328.169 181.001 329.651 180.405C331.142 179.8 332.837 180.524 333.442 182.006C334.038 183.497 333.322 185.192 331.832 185.797C331.482 185.942 331.108 186.002 330.741 186.002C329.591 186.002 328.501 185.32 328.049 184.179V184.187ZM338.936 184.92C337.352 184.698 336.244 183.225 336.466 181.623C336.687 180.039 338.161 178.923 339.754 179.153C341.347 179.366 342.455 180.848 342.233 182.441C342.029 183.898 340.776 184.945 339.354 184.945C339.209 184.945 339.081 184.945 338.936 184.92Z" fill="#B3B3B3"/>
<path d="M352.549 195.278C352.362 195.278 352.166 195.253 351.987 195.219C351.8 195.176 351.612 195.125 351.442 195.057C351.271 194.98 351.101 194.886 350.939 194.793C350.769 194.682 350.632 194.563 350.488 194.426C349.951 193.89 349.636 193.14 349.636 192.373C349.636 192.186 349.653 191.99 349.695 191.803C349.729 191.624 349.789 191.436 349.866 191.266C349.942 191.096 350.019 190.917 350.13 190.755C350.241 190.593 350.351 190.448 350.488 190.312C350.632 190.175 350.769 190.056 350.939 189.954C351.092 189.843 351.263 189.758 351.442 189.681C351.612 189.613 351.8 189.554 351.987 189.52C352.924 189.332 353.929 189.639 354.602 190.312C354.747 190.448 354.858 190.593 354.968 190.755C355.079 190.917 355.156 191.087 355.233 191.266C355.309 191.436 355.369 191.624 355.403 191.803C355.446 191.99 355.463 192.186 355.463 192.373C355.463 193.14 355.147 193.89 354.611 194.426C354.074 194.963 353.324 195.287 352.558 195.287L352.549 195.278Z" fill="#B3B3B3"/>
<path d="M303.592 104.187C303.592 104.187 300.508 97.5257 306.088 91.1792C306.088 91.1792 327.172 104.835 350.735 100.984C350.735 100.984 353.316 108.089 346.075 114.674C346.075 114.674 320.851 119.453 303.592 104.187Z" fill="#E50064"/>
<path d="M339.686 73.9542C324.514 61.159 295.78 59.3615 259.405 65.2224C228.124 70.257 196.272 82.0725 185.633 98.7608C180.794 106.36 184.082 127.469 184.082 127.469C212.893 129.266 223.447 104.494 223.447 104.494C223.447 104.494 221.522 97.4659 227.979 94.3566C250.571 83.4866 285.592 79.7725 298.617 82.984C305.577 84.6963 306.096 91.1876 306.096 91.1876C306.096 91.1876 323.892 111.394 350.684 100.643C350.684 100.643 346.577 79.7639 339.686 73.9542Z" fill="#DA3D16"/>
<path d="M229.334 115.815C229.334 115.815 230.168 108.523 222.885 104.255C222.885 104.255 207.159 123.84 183.571 127.58C183.571 127.58 183.349 135.136 192.294 139.114C192.294 139.114 217.74 135.741 229.342 115.824L229.334 115.815Z" fill="#E50064"/>
<path d="M223.566 181.98H109.534C102.844 181.98 97.4204 187.404 97.4204 194.094V261.154C97.4204 267.844 102.844 273.268 109.534 273.268H223.566C230.256 273.268 235.68 267.844 235.68 261.154V194.094C235.68 187.404 230.256 181.98 223.566 181.98Z" fill="#CA951E"/>
<g style="mix-blend-mode:multiply">
<path d="M235.68 194.094C235.68 187.407 230.253 181.98 223.566 181.98H109.534C102.847 181.98 97.4204 187.407 97.4204 194.094L160.118 244.917C163.824 247.924 169.123 247.924 172.837 244.917L235.688 194.086L235.68 194.094Z" fill="#FFD71D"/>
</g>
<path style="mix-blend-mode:overlay" opacity="0.7" d="M105.488 263.855V196.795C105.488 190.108 110.914 184.681 117.601 184.681H231.088C229.018 183.02 226.42 181.989 223.558 181.989H109.534C102.847 181.989 97.4204 187.416 97.4204 194.103V261.163C97.4204 267.85 102.847 273.276 109.534 273.276H110.071C107.294 271.053 105.488 267.679 105.488 263.855Z" fill="url(#paint0_radial_326_1473)"/>
<path d="M158.909 236.092L97.4204 181.989H235.68L174.191 236.092C169.821 239.934 163.279 239.934 158.909 236.092Z" fill="url(#paint1_linear_326_1473)"/>
<g style="mix-blend-mode:overlay" opacity="0.7">
<path d="M158.909 236.092L97.4204 181.989H235.68L174.191 236.092C169.821 239.934 163.279 239.934 158.909 236.092Z" fill="#CA951E"/>
</g>
<path d="M277.056 126.761C277.056 126.761 280.991 115.405 281.264 114.153C282.891 106.776 283.334 90.7775 283.232 87.3785C283.129 83.9795 282.814 80.9895 282.746 80.5294C282.678 80.0694 280.565 77.7949 280.557 77.829C280.557 77.8631 279.901 77.8971 279.901 77.8971L279.875 78.3231L278.964 77.5394L278.206 77.4968L278.129 77.8546L277.047 77.3349L275.999 77.3179C275.999 77.3179 276.672 79.4816 277.056 80.7935C277.439 82.1054 277.039 82.2162 277.039 82.2162C277.039 82.2162 276.195 82.5314 275.871 82.4291C275.539 82.3269 274.389 82.3695 274.389 82.3695C274.389 82.3695 277.567 86.5011 277.712 86.8844C277.856 87.2678 279.671 89.1504 278.989 92.8646C277.78 99.5178 274.466 109.4 274.466 109.4C274.568 109.17 270.189 121.658 270.189 121.658L277.056 126.769V126.761Z" fill="#FEC4AD"/>
<path d="M274.934 141.788C276.153 132.23 281.042 121.07 281.042 121.07C281.042 121.07 273.571 119.588 271.638 116.93C271.638 116.93 269.065 123.217 267.583 126.352C265.947 129.819 263.647 133.584 266.535 135.637C269.321 137.622 274.517 145.11 274.934 141.788Z" fill="#42B2FC"/>
<path d="M246.294 267.227V273.369H258.101C258.101 273.369 257.658 271.146 252.062 270.115L251.235 267.219H246.294V267.227Z" fill="#133A50"/>
<path d="M264.252 267.227V273.369H276.059C276.059 273.369 275.616 271.146 270.02 270.115L269.193 267.219H264.252V267.227Z" fill="#133A50"/>
<path d="M248.279 175.77C248.279 175.77 246.627 192.935 246.567 209.078C246.508 225.212 245.545 268.641 245.545 268.641H252.062C252.062 268.641 258.783 226.831 261.228 216.455C263.673 206.079 270.019 175.965 270.019 175.965L248.271 175.77H248.279Z" fill="#133A50"/>
<path d="M258.297 118.822C258.297 118.822 257.871 122.11 257.531 123.78C257.181 125.449 256.892 126.335 256.645 126.846C256.082 127.979 252.615 131.421 252.615 131.421C252.615 131.421 263.417 137.129 266.595 137.129C269.772 137.129 268.656 130.757 268.656 130.757C268.656 130.757 265.189 128.022 264.678 126.633C264.158 125.253 263.877 121.241 263.877 121.241L258.306 118.822H258.297Z" fill="#FEC4AD"/>
<path d="M262.446 194.4C262.446 194.4 263.664 221.609 263.911 226.456C264.158 231.295 263.911 268.616 263.911 268.616C263.911 268.616 270.019 268.777 270.019 268.616C270.019 268.454 275.778 226.252 276.519 214.325C277.268 202.399 276.825 188.25 277.822 186.605C278.81 184.953 275.147 175.855 275.147 175.855L266.501 175.54L262.446 194.409V194.4Z" fill="#133A50"/>
<path d="M254.804 128.21C254.804 128.21 245.681 124.547 244.173 127.554C243.032 129.828 244.011 144.421 244.522 148.502C244.965 152.054 247.419 181.904 247.419 181.904C247.419 181.904 250.826 187.185 267.242 185.081C273.571 184.272 276.681 181.188 276.681 181.188C276.681 181.188 274.909 145.571 274.415 141.993C273.929 138.415 272.234 132.844 272.234 132.844L267.353 129.624C267.353 129.624 268.912 133.066 264.499 134.045C255.614 136.022 254.804 128.21 254.804 128.21Z" fill="#42B2FC"/>
<path d="M266.935 106.401C267.966 106.819 269.781 107.747 269.976 108.616C270.181 109.477 270.914 111.981 271.007 113.497C271.101 115.014 271.322 117.885 271.314 119.665C271.314 121.454 270.232 125.066 269.823 125.449C269.414 125.833 266.416 126.455 265.402 126.165C264.388 125.875 258.434 122.791 258.059 119.026C258.059 119.026 257.002 119.58 255.06 116.436C254.558 115.619 256.304 109.519 256.534 108.429C257.105 105.788 263.613 107.867 265.078 107.449C266.535 107.032 266.927 106.401 266.927 106.401H266.935Z" fill="#FEC4AD"/>
<path d="M269.976 108.617C269.976 108.617 265.41 111.471 263.63 111.624C261.85 111.769 259.234 114.214 259.285 114.98C259.337 115.747 258.536 116.258 258.536 116.258C258.536 116.258 257.428 114.495 256.517 114.674C254.719 115.04 255.776 117.255 256.747 117.74C257.718 118.226 258.672 118.533 258.672 118.533C258.672 118.533 258.834 119.589 258.757 120.432C258.681 121.276 257.999 122.656 257.999 122.656C257.999 122.656 255.895 118.226 254.004 116.565C249.514 112.629 252.769 105.32 257.19 103.948C258.979 103.395 263.877 103.028 266.271 104.093C269.465 105.524 269.976 108.608 269.976 108.608V108.617Z" fill="#133A50"/>
<path d="M260.419 114.861C260.487 115.039 260.955 115.073 261.041 115.108C261.228 115.193 261.143 115.218 261.969 116.479C262.574 117.408 263.588 117.706 265.487 117.067C266.935 116.581 266.731 115.338 266.833 114.741C266.936 114.145 267.063 114.051 267.293 114.009C267.523 113.966 267.651 114.026 267.949 114.545C268.247 115.065 268.384 116.419 269.9 116.189C270.948 116.036 271.22 115.746 271.357 114.92C271.485 114.188 271.519 113.463 271.476 112.918C271.433 112.373 271.425 112.041 271.144 112.007C270.803 111.973 270.352 112.066 269.9 112.143C268.997 112.305 268.35 112.322 267.856 112.671C267.37 113.029 267.421 113.242 267.166 113.293C266.901 113.344 266.859 113.114 266.28 112.952C265.7 112.782 263.289 113.208 262.386 113.37C261.483 113.532 260.24 113.864 260.265 114.205C260.282 114.392 260.333 114.639 260.41 114.852L260.419 114.861ZM268.222 113.515C268.264 113.072 268.299 113.123 269.414 112.867C270.53 112.612 270.65 112.663 270.871 112.842C271.093 113.02 271.263 113.719 271.144 114.639C271.084 115.133 270.982 115.772 270.07 115.934C269.091 116.104 268.861 115.619 268.58 114.937C268.298 114.256 268.196 113.676 268.213 113.515H268.222ZM261.713 114.239C261.867 113.992 263.375 113.787 264.516 113.651C265.649 113.515 266.033 113.463 266.228 113.864C266.297 114.009 266.399 114.588 266.373 115.321C266.348 116.053 266.203 116.701 264.431 117.016C263.179 117.237 262.574 116.896 262.063 115.959C261.611 115.15 261.577 114.477 261.731 114.23L261.713 114.239ZM257.923 115.363L260.419 114.852L261.262 113.617C261.262 113.617 260.308 113.753 258.723 114.102C257.974 114.273 257.224 114.809 257.224 114.809C257.224 114.809 257.59 114.98 257.931 115.355L257.923 115.363Z" fill="#21295B"/>
<path d="M238.253 127.8C238.253 127.8 236.098 114.127 236.072 112.85C235.944 105.293 239.778 95.1391 240.561 91.8253C241.345 88.5115 241.865 89.0397 242.018 88.6052C242.171 88.1707 247.666 87.3274 247.666 87.3274C247.666 87.3274 249.14 86.714 249.489 86.68C249.83 86.6459 251.278 86.2114 251.278 86.2114L250.435 87.7278C250.435 87.7278 247.01 90.326 246.797 90.6753C246.576 91.0245 244.429 92.5068 244.352 96.2806C244.207 103.044 244.233 110.362 244.233 110.362C244.182 110.115 247.47 124.367 247.47 124.367L238.261 127.809L238.253 127.8Z" fill="#FEC4AD"/>
<path d="M244.522 148.5C242.197 141.907 236.89 124.213 236.89 124.213C236.89 124.213 244.787 122.228 247.018 119.809C247.018 119.809 249.685 127.723 250.792 131.003C252.019 134.632 253.859 138.644 250.75 140.348C247.751 141.992 245.638 151.661 244.522 148.5Z" fill="#42B2FC"/>
<path d="M397.256 159.549C399.309 161.457 400.757 160.818 403.832 171.356C405.8 178.086 412.973 212.05 412.973 212.05L408.688 213.907C404.826 203.083 400.64 193.286 396.131 184.518C392.851 178.137 391.471 171.833 391.471 171.833L378.957 171.083C371.129 167.863 373.812 156.448 373.812 156.448C373.812 156.448 395.203 157.641 397.256 159.558V159.549Z" fill="url(#paint2_linear_326_1473)"/>
<path d="M349.84 149.455L361.136 142.223L372.066 150.707L385.679 155.103C385.679 155.103 385.653 155.12 385.602 155.146C391.08 157.045 397.324 159.814 399.241 161.603C401.294 163.511 405.332 166.22 402.077 176.707C399.999 183.402 390.918 217.341 390.918 217.341L386.318 216.523C386.318 216.523 387.953 196.862 389.589 182.15C390.381 175.02 390.654 173.026 390.654 173.026C390.654 173.026 360.267 176.34 350.479 171.169C343.63 167.549 349.849 154.941 349.849 149.455H349.84Z" fill="url(#paint3_linear_326_1473)"/>
<path d="M391.233 214.878C391.233 214.878 391.096 216.113 389.12 216.667C387.144 217.221 385.798 215.585 385.798 215.585L385.363 219.623L391.684 224.078H396.932L394.095 220.926L391.241 214.87L391.233 214.878Z" fill="#133A50"/>
<path d="M412.3 209.282C412.3 209.282 413.228 211.012 411.516 212.145C409.804 213.278 408.023 212.127 408.023 212.127L408.833 216.106L423.758 211.437L412.3 209.282Z" fill="#133A50"/>
<path d="M395.117 108.753C395.092 108.966 392.63 105.797 392.63 105.797L392.059 103.199C392.059 103.199 391.054 101.853 390.279 101.044C389.503 100.234 388.813 96.7502 388.813 96.7502L389.827 96.1368C389.827 96.1368 390.372 97.7213 390.628 98.0365C390.884 98.3517 391.608 98.4369 391.608 98.4369C391.608 98.4369 391.701 97.4743 391.642 96.0176C391.574 94.5609 390.722 91.9286 390.722 91.9286L391.565 91.5197C391.565 91.5197 392.195 92.7975 392.374 93.3938C392.553 93.9901 392.86 95.2083 392.86 95.2083C392.86 95.2083 392.8 93.2405 392.604 92.4397C392.408 91.6389 392.264 90.5996 392.264 90.5996L393.15 90.3696C393.15 90.3696 393.593 91.69 393.737 92.6015C393.882 93.513 394.197 95.0635 394.197 95.0635C394.197 95.0635 394.317 92.9082 394.231 92.2438C394.146 91.5793 394.138 91.2556 394.138 91.2556L395.075 91.2811C395.075 91.2811 395.416 92.2608 395.407 93.4023C395.407 94.5438 395.501 95.089 395.501 95.089C395.501 95.089 395.858 93.3682 395.765 92.789C395.671 92.2097 395.731 92.0052 395.731 92.0052L396.455 92.1245C396.455 92.1245 396.864 94.9953 396.991 96.7246C397.119 98.4539 396.915 100.652 396.898 101.878C396.881 103.105 396.847 104.059 396.847 104.059L395.143 108.745L395.117 108.753Z" fill="#FEC4AD"/>
<path d="M375.984 112.1C381.811 116.888 387.629 120.423 387.629 120.423C387.629 120.423 389.793 114.988 390.832 111.137C392.067 106.537 392.425 104.425 392.425 104.425L396.821 104.067C396.821 104.067 395.432 115.823 393.703 123.805C392.025 131.557 389.912 130.168 388.055 129.794C386.198 129.41 368.709 120.014 368.709 120.014L370.583 110.03C370.583 110.03 371.827 108.693 375.993 112.109L375.984 112.1Z" fill="#FEC4AD"/>
<path d="M357.499 83.8687C358.436 83.332 362.951 82.9657 365.779 84.7035C371.188 88.0344 368.59 97.1579 368.249 99.2621C367.908 101.366 369.851 105.149 369.817 107.662C369.783 110.175 369.186 111.078 367.312 113.514C366.758 114.238 366.614 115.456 366.614 115.456C366.614 115.456 364.544 112.355 364.101 108.036C363.658 103.717 362.738 104.723 360.582 99.9862C358.427 95.2412 358.325 88.1025 358.325 88.1025L357.499 83.8687Z" fill="#471A16"/>
<path d="M362.005 86.9617L357.507 83.8694C357.507 83.8694 353.665 83.3583 351.434 86.7743C349.202 90.1903 348.426 95.1397 347.924 98.8624C347.421 102.585 346.109 109.571 346.203 112.348C346.297 115.125 349.662 115.5 349.662 115.5L360.966 110.61C360.966 110.61 359.629 104.664 360.864 98.3343C362.099 91.9963 362.014 86.9617 362.014 86.9617H362.005Z" fill="#471A16"/>
<path d="M365.762 87.9066C366 89.3122 367.091 93.4438 367.193 96.0931C367.304 98.7425 366.989 103.113 365.234 104.314C363.479 105.515 360.182 104.561 357.771 103.556C355.361 102.559 354.773 100.864 354.304 99.3132C353.836 97.7543 353.998 93.6312 354.551 90.6667C355.105 87.7021 356.979 86.518 359.16 86.1091C361.341 85.7002 365.762 87.9066 365.762 87.9066Z" fill="#FEC4AD"/>
<path d="M355.906 97.7627C355.906 97.7627 356.519 104.348 355.139 107.449C354.185 109.587 350.309 110.498 350.309 110.498C350.309 110.498 350.164 116.419 354.049 122.143C357.933 127.859 370.089 129.981 370.089 129.981C370.089 129.981 372.466 125.202 373.718 119.852C374.971 114.502 371.58 110.37 371.58 110.37C371.58 110.37 368.292 109.297 366.716 108.701C362.891 107.261 363.334 101.17 363.334 101.17L355.906 97.7627Z" fill="#FEC4AD"/>
<path d="M363.291 113.038C363.291 113.038 355.437 111.045 353.077 109.511L345.282 114.145C345.282 114.145 340.708 118.516 348.519 129.99C348.519 129.99 351.484 140.443 346.671 158.869C346.671 158.869 347.974 163.614 355.266 161.084C361.545 158.912 361.689 157.208 367.193 155.811C375.319 153.749 377.458 152.48 377.458 152.48C373.19 146.065 373.948 136.047 373.948 136.047C373.948 136.047 378.787 131.413 376.717 126.685C373.726 119.853 372.721 110.184 372.721 110.184L368.547 109.128C368.547 109.128 366.324 111.845 365.216 112.672C364.109 113.498 363.291 113.03 363.291 113.03V113.038Z" fill="#42B2FC"/>
<path d="M366.716 108.701C366.716 108.701 365.761 112.262 363.291 113.037C363.291 113.037 364.254 117.91 366.562 117.067C369.808 115.874 368.539 109.136 368.539 109.136L366.707 108.71L366.716 108.701Z" fill="white"/>
<path d="M352.131 108.906C352.131 108.906 353.673 116.352 357.788 116.956C361.902 117.561 363.291 113.029 363.291 113.029C363.291 113.029 354.568 110.474 353.716 107.799L352.14 108.898L352.131 108.906Z" fill="white"/>
<path d="M359.39 86.0328C358.632 86.0839 358.069 89.6703 357.993 91.6723C357.916 93.6742 354.917 95.2587 356.238 99.6629C357.558 104.067 357.379 108.326 359.16 113.157C360.932 117.987 358.725 119.75 357.763 121.42C357.763 121.42 353.963 117.263 352.677 115.176C350.615 111.836 347.25 112.739 347.25 112.739C347.25 112.739 353.052 101.477 352.856 98.4447C352.66 95.412 352.123 90.7693 354.543 88.0007C356.962 85.2321 359.39 86.0328 359.39 86.0328Z" fill="#471A16"/>
<path d="M356.34 95.0287C356.34 95.0287 354.73 93.2653 353.665 93.5294C352.6 93.802 352.532 95.395 353.342 96.6984C354.151 98.0017 357.149 98.7429 357.149 98.7429L356.34 95.0202V95.0287Z" fill="#FEC4AD"/>
<path d="M360.003 91.5871C361.468 91.7234 362.295 91.5105 364.578 91.2549C367.5 90.9312 368.735 91.6808 368.735 91.6808L367.627 86.8251C367.627 86.8251 364.211 84.9255 361.801 84.9425C358.725 84.9595 356.033 86.1436 357.558 87.1318C359.168 88.1881 360.003 91.5786 360.003 91.5786V91.5871Z" fill="#471A16"/>
<path d="M351.893 119.58C351.374 125.68 349.576 143.049 349.576 143.049C355.122 147.905 362.976 155.972 362.976 155.972C362.976 155.972 360.744 160.376 359.782 159.635C352.14 153.664 343.4 150.12 342.778 145.963C341.756 139.131 341.398 121.94 343.92 116.351C345.862 112.041 352.447 113.114 351.893 119.58Z" fill="#FEC4AD"/>
<path d="M366.35 156.517C368.675 157.386 370.132 158.246 369.996 159.115C369.902 159.711 367.917 158.621 366.733 158.663C367.125 159.507 368.198 160.767 369.553 161.432C371.086 162.19 371.947 163.238 371.129 164.124C370.311 165.01 368.795 166.254 367.806 165.802C366.818 165.351 363.309 162.897 361.988 162.224C360.668 161.543 360.14 159.89 359.458 159.43C358.777 158.97 360.702 155.486 360.702 155.486C361.068 155.588 362.985 155.997 362.985 155.997C362.985 155.997 364.493 156.218 364.884 156.159C365.276 156.091 366.35 156.542 366.35 156.542V156.517Z" fill="#FEC4AD"/>
<path d="M0 272.961H519.227" stroke="#194459" strokeMiterlimit="10"/>
<defs>
<radialGradient id="paint0_radial_326_1473" cx="0" cy="0" r="1" gradientUnits="userSpaceOnUse" gradientTransform="translate(112.013 214.727) scale(57.229 57.229)">
<stop stopColor="white"/>
<stop offset="1" stopColor="white" stopOpacity="0"/>
</radialGradient>
<linearGradient id="paint1_linear_326_1473" x1="166.55" y1="181.981" x2="166.55" y2="238.971" gradientUnits="userSpaceOnUse">
<stop stopColor="#FFD71D"/>
<stop offset="1" stopColor="#FEB200"/>
</linearGradient>
<linearGradient id="paint2_linear_326_1473" x1="412.981" y1="185.174" x2="373.369" y2="185.174" gradientUnits="userSpaceOnUse">
<stop stopColor="#343A44"/>
<stop offset="0.3" stopColor="#232C3D"/>
<stop offset="0.64" stopColor="#172339"/>
<stop offset="1" stopColor="#142138"/>
</linearGradient>
<linearGradient id="paint3_linear_326_1473" x1="403.296" y1="179.773" x2="347.251" y2="179.773" gradientUnits="userSpaceOnUse">
<stop stopColor="#343A44"/>
<stop offset="0.3" stopColor="#232C3D"/>
<stop offset="0.64" stopColor="#172339"/>
<stop offset="1" stopColor="#142138"/>
</linearGradient>
</defs>
</svg>